<svg width="154" height="30" viewBox="0 0 154 30" fill="none" xmlns="http://www.w3.org/2000/svg">
    <g clip-path="url(#clip0_2958_20)">
        <path fill-rule="evenodd" clip-rule="evenodd"
              d="M14.5196 0.859189V14.2124C14.5196 14.7136 14.1302 14.8926 13.7763 14.5346L0.185737 0.75179C-0.168185 0.393795 0.00877604 0 0.504266 0H13.7409C14.2364 0 14.5196 0.250597 14.5196 0.859189ZM14.5196 15.895V29.2482C14.5196 29.7494 14.1302 29.9284 13.7763 29.5704L0.185737 15.7876C-0.168185 15.4296 0.00877604 15.0358 0.504266 15.0358H13.7409C14.2364 15.0358 14.5196 15.2864 14.5196 15.895ZM29.4196 0.859189V14.2124C29.4196 14.7136 29.0303 14.8926 28.6764 14.5346L15.0504 0.75179C14.6965 0.393795 14.8735 0 15.369 0H28.6056C29.1365 0 29.4196 0.250597 29.4196 0.859189ZM29.4196 15.895V29.2482C29.4196 29.7494 29.0303 29.9284 28.6764 29.5704L15.0504 15.7876C14.6965 15.4296 14.8735 15.0358 15.369 15.0358H28.6056C29.1365 15.0358 29.4196 15.2864 29.4196 15.895ZM36.7458 15.0716H40.0727V29.7494H36.7458V15.0716ZM46.0186 29.7494H42.9394V15.0716H46.9034L52.4953 25.5251H52.5307L52.283 15.0716H55.3621V29.7494H51.8229L45.9832 18.8305H45.9124L46.0186 29.7494ZM67.1477 20.8353V23.5561H61.5911V26.9928H67.8201V29.7494H58.2642V15.0716H67.5016V17.8282H61.5911V20.8711H67.1477V20.8353ZM80.6321 26.7064L81.163 29.3198C80.172 29.7852 78.8625 30 77.2698 30C74.8278 30 72.9166 29.3198 71.5363 27.9952C70.156 26.6348 69.4482 24.8807 69.4482 22.6253C69.4482 20.2625 70.1914 18.401 71.7133 16.969C73.2351 15.5728 75.1817 14.8568 77.5884 14.8568C79.2164 14.8568 80.4551 15.0716 81.3399 15.537L80.6675 18.1862C79.7827 17.7924 78.7917 17.6134 77.7299 17.6134C76.2788 17.6134 75.1109 18.043 74.2261 18.9021C73.3413 19.7613 72.9166 20.9427 72.9166 22.4463C72.9166 23.9141 73.3413 25.0955 74.2261 25.9547C75.0755 26.8138 76.2435 27.2434 77.7653 27.2434C78.7917 27.2076 79.7827 27.0286 80.6321 26.7064ZM96.4878 22.2673C96.4878 24.5943 95.8153 26.4558 94.4704 27.852C93.1255 29.2482 91.3205 29.9642 89.1616 29.9642C87.0027 29.9642 85.3038 29.284 83.9943 27.852C82.6848 26.4558 82.0478 24.6659 82.0478 22.4821C82.0478 20.2267 82.7202 18.401 84.1005 16.969C85.4454 15.537 87.215 14.821 89.3739 14.821C91.5329 14.821 93.2671 15.5012 94.5766 16.8974C95.8507 18.3294 96.4878 20.1193 96.4878 22.2673ZM85.5162 22.4463C85.5162 23.8783 85.8701 25.0597 86.5426 25.9905C87.215 26.8854 88.1352 27.3508 89.2324 27.3508C90.3649 27.3508 91.2497 26.8854 91.9576 25.9905C92.63 25.0955 92.9839 23.8783 92.9839 22.4105C92.9839 20.9785 92.6654 19.7971 91.9576 18.9021C91.2851 17.9714 90.3649 17.506 89.2678 17.506C88.1706 17.506 87.2504 17.9714 86.578 18.9021C85.8701 19.7971 85.5162 20.9785 85.5162 22.4463ZM98.7175 29.6778V15.2864C99.8854 15.0716 101.336 14.9642 103.071 14.9642C105.3 14.9642 106.858 15.3222 107.813 16.0024C108.769 16.6826 109.229 17.5776 109.229 18.6874C109.229 19.3675 109.017 20.0119 108.627 20.5489C108.238 21.0859 107.601 21.5155 106.822 21.8019V21.8377C107.742 22.0883 108.45 22.5179 108.981 23.1623C109.512 23.8067 109.76 24.5585 109.76 25.4535C109.76 26.7422 109.229 27.7804 108.167 28.6396C107.105 29.463 105.159 29.8926 102.363 29.8926C100.947 29.8926 99.7438 29.821 98.7175 29.6778ZM102.009 17.506V20.8711H103.106C103.991 20.8711 104.663 20.6921 105.159 20.4057C105.619 20.0835 105.867 19.6539 105.867 19.0811C105.867 17.9714 105.053 17.3986 103.46 17.3986C102.788 17.3986 102.292 17.4344 102.009 17.506ZM102.009 23.2697V27.3508C102.186 27.3866 102.611 27.4224 103.354 27.4224C104.274 27.4224 104.982 27.2434 105.477 26.8854C106.008 26.5274 106.256 25.9905 106.256 25.3103C106.256 24.6301 106.008 24.1289 105.442 23.7709C104.911 23.4129 104.168 23.2339 103.177 23.2339H102.009V23.2697ZM119.74 25.9189H115.387L114.325 29.7494H110.857L115.423 15.0716H119.811L124.518 29.7494H120.908L119.74 25.9189ZM115.883 23.4487H119.21C118.325 20.5847 117.758 18.6158 117.511 17.5418H117.475L116.803 20.3341L115.883 23.4487ZM129.579 29.7494H126.5V15.0716H130.464L136.056 25.5251H136.092L135.844 15.0716H138.923V29.7494H135.384L129.509 18.8305H129.438L129.579 29.7494ZM141.79 29.7494V15.0716H145.081V21.5513C145.541 20.8711 145.931 20.2983 146.285 19.7971L149.576 15.0716H153.717L148.762 21.3007L154 29.7494H150.107L146.355 23.4129L145.081 24.9523V29.7494H141.79Z"
              fill="#006037"/>
    </g>
    <defs>
        <clipPath id="clip0_2958_20">
            <rect width="154" height="30" fill="white"/>
        </clipPath>
    </defs>
</svg>
